<svg id="SvgjsSvg1001" width="288" height="288" xmlns="http://www.w3.org/2000/svg" version="1.1" xmlns:xlink="http://www.w3.org/1999/xlink" xmlns:svgjs="http://svgjs.com/svgjs"><defs id="SvgjsDefs1002"></defs><g id="SvgjsG1008" transform="matrix(1,0,0,1,0,0)"><svg xmlns="http://www.w3.org/2000/svg" width="288" height="288" version="1.0" viewBox="0 0 512 512"><g transform="matrix(.1 0 0 -.1 0 512)" fill="#ff0000" class="color000 svgShape"><path d="M397 5104 c-32 -7 -83 -26 -115 -41 -75 -36 -189 -150 -225 -225 -56-117 -57 -126 -57 -830 l0 -648 78 40 c137 69 170 73 567 71 346 -2 375 -5
375 -36 0 -29 -60 -144 -80 -155 -24 -13 -225 -15 -342 -4 -65 6 -67 6 -71
-17 -8 -39 -57 -341 -87 -534 -30 -194 -50 -386 -50 -485 0 -54 -3 -65 -28
-90 -44 -44 -184 -67 -216 -35 -23 24 -29 77 -23 204 12 237 117 696 208 907
l18 44 -37 0 c-36 0 -155 -26 -259 -56 l-53 -15 0 -1367 c0 -1491 -2 -1426 57
-1550 36 -75 150 -189 225 -225 126 -60 -11 -57 2278 -57 2289 0 2152 -3 2278
57 75 36 189 150 225 225 58 121 57 102 57 1093 -1 667 -4 905 -12 890 -19
-35 -82 -96 -119 -115 -85 -44 -229 -48 -335 -8 -67 24 -141 90 -168 149 l-22
46 -27 -23 c-40 -34 -100 -47 -186 -41 l-75 6 -53 -49 c-94 -86 -211 -125
-340 -113 -146 13 -251 76 -301 180 -9 18 -19 33 -22 33 -4 0 -36 -19 -72 -43
-36 -23 -103 -60 -150 -80 l-84 -38 -22 -73 c-40 -128 -116 -269 -180 -334
-84 -86 -151 -115 -279 -120 -223 -9 -360 79 -371 241 l-4 58 48 47 c59 57
170 113 364 186 167 63 147 36 180 246 28 179 89 424 155 630 30 92 55 170 55
173 0 2 -19 13 -42 22 -64 27 -181 22 -340 -15 -156 -36 -203 -38 -217 -11
-26 47 87 134 241 186 70 23 104 29 218 33 150 5 226 -6 306 -42 74 -34 89
-65 80 -172 -8 -103 -52 -362 -109 -644 -25 -118 -43 -217 -41 -219 6 -7 129
49 186 84 l54 34 12 74 c23 152 91 270 203 352 81 60 168 86 281 86 135 0 258
-45 266 -98 4 -25 -11 -29 -141 -37 -43 -2 -102 -13 -130 -23 -68 -24 -149
-99 -184 -171 -24 -49 -28 -69 -28 -147 0 -103 13 -135 73 -175 30 -21 48 -25
106 -25 39 0 86 6 103 14 l33 13 -38 37 c-55 53 -76 103 -80 192 -4 84 7 123
54 178 40 48 96 71 175 71 76 0 120 -22 152 -78 35 -59 31 -193 -8 -286 -7
-16 -5 -18 26 -11 46 10 100 38 125 67 16 16 25 47 34 108 6 47 29 137 51 200
57 167 56 156 18 175 -50 25 -89 66 -89 92 0 19 5 23 33 23 17 0 54 -7 81 -15
27 -8 52 -15 56 -15 4 0 33 41 65 91 111 175 249 283 378 296 l57 6 0 591 c0
643 -1 658 -57 774 -36 75 -150 189 -225 225 -126 60 12 57 -2283 56 -1764 -1
-2109 -3 -2158 -15z m922 -1698 c52 -101 37 -188 -63 -365 -30 -53 -57 -112
-61 -131 -3 -19 -9 -43 -12 -54 -3 -10 19 6 50 37 76 75 142 100 252 95 132
-7 205 -62 221 -166 9 -58 -9 -198 -40 -317 -34 -127 -37 -152 -23 -164 19
-15 62 11 135 82 38 38 62 70 62 83 0 12 10 53 21 90 76 246 244 394 449 396
134 0 201 -53 208 -167 7 -123 -61 -192 -278 -278 l-135 -54 1 -48 c1 -57 28
-87 97 -106 117 -32 248 16 377 137 44 41 84 74 90 74 23 0 33 -47 21 -97 -53
-208 -280 -344 -555 -331 -131 6 -220 51 -262 131 l-15 28 -31 -26 c-17 -15
-77 -49 -132 -77 -152 -77 -222 -70 -271 28 -30 61 -32 203 -5 329 13 55 25
130 27 167 5 63 4 67 -21 83 -80 53 -198 -61 -262 -252 -23 -68 -24 -84 -18
-181 8 -134 -3 -168 -72 -212 -64 -40 -109 -48 -135 -24 -50 45 -59 111 -48
345 11 255 53 449 150 692 41 102 122 272 142 296 38 45 101 26 136 -43z" fill="#ff0000" class="color000 svgShape"></path><path d="M2189 2809c-26-26-55-90-65-143-8-47-3-46 87 15 78 53 106 113 65 141-21 15-66 8-87-13zM5045 3272c-41-25-135-129-163-180-21-39-22-42-5-42 50 0 179 55 221 93 18 17 22 31 22 84 0 59-2 63-22 63-13 0-36-8-53-18zM5052 2979c-35-10-105-23-157-30l-93-12-26-86c-37-126-48-201-50-341-1-110 2-130 21-166 24-44 57-64 108-64 44 0 81 43 91 105 10 69-2 109-53 170l-45 57 18 41c23 51 80 116 112 128 41 16 86-12 116-72l26-53 0 172c0 95-1 171-2 171-2-1-31-9-66-20zM4136 2664c-9-9-16-32-16-55 0-42 23-109 38-109 25 0 43 145 20 168-16 16-23 15-42-4zM2690 2000c-186-66-224-94-198-147 29-59 163-95 216-58 38 27 112 180 112 232 0 18-10 16-130-27z" fill="#ff0000" class="color000 svgShape"></path></g></svg></g></svg>